#!OML:ASF F:\VICON\USERDATA\INSTALL\rory3\rory3.ASF
:FULLY-SPECIFIED
:DEGREES
16
root 0.873269 17.662 -21.2031 -1.8438 3.04614 3.7
lowerback 10.8978 -2.33461 -5.68427
upperback 0.251265 -3.71066 1.80541
thorax -5.36695 -1.66182 5.66795
lowerneck -16.1743 -2.2327 -2.70268
upperneck 19.8324 -2.2505 -0.668027
head 8.90962 -1.33722 -0.0575143
rclavicle -5.31749e-015 1.35174e-014
rhumerus -38.3784 -25.7586 -71.1416
rradius 20.3759
rwrist 9.68117
rhand -18.1448 20.5608
rfingers 7.12502
rthumb 8.13062 -9.2628
lclavicle -5.31749e-015 1.35174e-014
lhumerus -22.2684 -1.83977 81.7748
lradius 30.7364
lwrist 7.03913
lhand -32.602 25.8639
lfingers 7.12502
lthumb -5.82995 55.7637
rfemur -29.2365 3.81869 16.9783
rtibia 23.647
rfoot -7.1499 -11.4961
rtoes 5.27907
lfemur 15.2034 -5.15017 -27.6787
ltibia 20.8211
lfoot -13.5131 -4.97373
ltoes -12.4073
17
root 0.844452 17.6946 -20.9913 -1.85664 3.02249 3.36804
lowerback 10.7286 -2.3882 -5.4157
upperback 0.252128 -3.73181 1.94569
thorax -5.2755 -1.68162 5.6566
lowerneck -16.2269 -2.21015 -2.90907
upperneck 20.1138 -2.16663 -0.649136
head 9.01865 -1.31397 -0.00924601
rclavicle 3.3048e-014 -1.59028e-015
rhumerus -38.5041 -26.1239 -70.7241
rradius 20.0428
rwrist 10.0702
rhand -18.1553 20.1473
rfingers 7.12502
rthumb 8.12045 -9.67663
lclavicle 3.3048e-014 -1.59028e-015
lhumerus -22.396 -1.49865 81.8456
lradius 30.6322
lwrist 6.90229
lhand -32.8158 23.1833
lfingers 7.12502
lthumb -6.03637 53.0773
rfemur -29.1419 4.09042 17.3913
rtibia 24.2585
rfoot -5.9125 -11.5245
rtoes 0.874562
lfemur 15.2453 -5.42352 -27.3053
ltibia 21.8292
lfoot -12.5001 -5.1244
ltoes -14.1802
18
root 0.816205 17.7233 -20.7795 -1.87411 2.90859 2.7782
lowerback 10.633 -2.42342 -4.89707
upperback 0.168596 -3.70169 2.12664
thorax -5.33421 -1.67383 5.54835
lowerneck -16.0518 -2.18088 -2.88039
upperneck 20.2149 -2.11621 -0.753536
head 9.0195 -1.30075 -0.0420378
rclavicle 5.87906e-014 -4.77083e-015
rhumerus -38.8629 -26.4803 -70.267
rradius 19.7127
rwrist 10.5303
rhand -18.5049 20.0481
rfingers 7.12502
rthumb 7.78305 -9.78866
lclavicle 5.87906e-014 -4.77083e-015
lhumerus -22.6677 -1.1195 81.8572
lradius 30.3666
lwrist 6.75409
lhand -32.6069 20.9255
lfingers 7.12502
lthumb -5.8347 50.8252
rfemur -28.8399 4.12029 18.1894
rtibia 24.5499
rfoot -5.10057 -10.9459
rtoes -1.48845
lfemur 15.1384 -5.57283 -26.6079
ltibia 23.0588
lfoot -11.5931 -5.60177
ltoes -16.3704
19
root 0.794405 17.7466 -20.5679 -1.9077 2.80785 2.26668
lowerback 10.6785 -2.4779 -4.44869
upperback -0.0235403 -3.71119 2.33784
thorax -5.57564 -1.6746 5.53172
lowerneck -15.7327 -2.07925 -2.90051
upperneck 20.2177 -1.96087 -0.849622
head 8.95995 -1.24036 -0.0486916
rclavicle -2.28602e-015 6.36111e-015
rhumerus -39.3897 -26.6174 -69.685
rradius 19.4883
rwrist 11.0815
rhand -19.0221 19.2987
rfingers 7.12502
rthumb 7.28386 -10.556
lclavicle -2.28602e-015 6.36111e-015
lhumerus -23.2096 -0.482719 81.9177
lradius 30.2777
lwrist 6.5763
lhand -32.4317 22.4883
lfingers 7.12502
lthumb -5.66554 52.3925
rfemur -28.4705 4.05486 18.8798
rtibia 24.8218
rfoot -4.6283 -9.5178
rtoes -2.39265
lfemur 14.9114 -5.78327 -26.0497
ltibia 24.5318
lfoot -10.336 -6.77668
ltoes -15.7362
20
root 0.773504 17.7727 -20.3597 -1.94678 2.59561 1.71539
lowerback 10.5939 -2.50218 -3.97364
upperback -0.155347 -3.66797 2.59097
thorax -5.68547 -1.65683 5.52604
lowerneck -15.298 -2.02032 -2.95167
upperneck 20.1623 -1.83502 -1.06693
head 8.85929 -1.20837 -0.0936929
rclavicle 7.53891e-014 -1.11319e-014
rhumerus -39.6651 -26.5161 -69.2857
rradius 19.269
rwrist 11.2424
rhand -19.1572 18.4779
rfingers 7.12502
rthumb 7.15346 -11.3812
lclavicle 7.53891e-014 -1.11319e-014
lhumerus -23.7227 0.106049 82.0515
lradius 30.2212
lwrist 6.45656
lhand -32.4576 23.3397
lfingers 7.12502
lthumb -5.69055 53.2433
rfemur -28.1167 4.29226 19.5684
rtibia 25.1988
rfoot -4.3102 -7.93527
rtoes -1.68239
lfemur 14.5464 -5.79149 -25.4036
ltibia 26.1973
lfoot -8.75227 -7.96931
ltoes -15.7579
21
root 0.752239 17.7885 -20.1455 -2.08799 2.22772 1.34559
lowerback 10.5885 -2.32029 -3.50554
upperback -0.0515674 -3.36543 2.61123
thorax -5.63413 -1.52419 5.23494
lowerneck -15.8147 -2.13929 -2.81949
upperneck 20.4539 -1.99675 -1.12636
head 9.05326 -1.28366 -0.163617
rclavicle 5.94863e-014 -1.59028e-015
rhumerus -39.7714 -27.5081 -68.78
rradius 18.9573
rwrist 11.9812
rhand -19.2012 18.1986
rfingers 7.12502
rthumb 7.11094 -11.662
lclavicle 5.94863e-014 -1.59028e-015
lhumerus -23.7806 -0.00324849 82.1509
lradius 30.2247
lwrist 6.51834
lhand -32.5185 24.1801
lfingers 7.12502
lthumb -5.74932 54.0821
rfemur -27.6458 4.42378 20.1882
rtibia 25.7249
rfoot -3.89903 -6.63656
rtoes 0.904811
lfemur 14.31 -5.56569 -24.9412
ltibia 27.9382
lfoot -7.33328 -8.16376
ltoes -18.6061
22
root 0.733132 17.8025 -19.9264 -2.1418 1.93551 0.960318
lowerback 10.457 -2.00068 -2.79138
upperback 0.285472 -2.85907 2.43093
thorax -5.30465 -1.31079 4.54677
lowerneck -17.3776 -2.37131 -2.27788
upperneck 20.9763 -2.39642 -1.15944
head 9.51623 -1.43504 -0.339949
rclavicle -4.02539e-014 2.22639e-014
rhumerus -39.7357 -29.5203 -68.3433
rradius 18.7067
rwrist 12.9111
rhand -19.4545 17.7954
rfingers 7.12502
rthumb 6.86642 -12.0732
lclavicle -4.02539e-014 2.22639e-014
lhumerus -23.068 -0.550769 82.1852
lradius 29.9322
lwrist 6.54456
lhand -32.8951 26.4247
lfingers 7.12502
lthumb -6.11298 56.3165
rfemur -27.3034 4.0939 20.955
rtibia 26.4532
rfoot -3.76373 -5.73547
rtoes 2.80987
lfemur 13.9376 -5.41735 -24.4493
ltibia 29.7205
lfoot -5.13945 -9.46583
ltoes -19.2167
23
root 0.712568 17.8203 -19.7094 -2.10312 1.69814 0.757913
lowerback 10.4483 -2.34503 -3.1427
upperback -0.468552 -3.32914 2.97672
thorax -5.99965 -1.49277 5.4226
lowerneck -14.9524 -1.89942 -3.06183
upperneck 20.5166 -1.61617 -1.22205
head 8.91619 -1.13515 -0.100712
rclavicle -8.3738e-015 7.95139e-015
rhumerus -40.6913 -27.5681 -67.5647
rradius 18.4569
rwrist 12.8656
rhand -19.4124 17.9119
rfingers 7.12502
rthumb 6.9071 -11.9554
lclavicle -8.3738e-015 7.95139e-015
lhumerus -25.3053 1.31002 82.3272
lradius 30.2637
lwrist 6.3645
lhand -32.5273 27.003
lfingers 7.12502
lthumb -5.75783 56.9048
rfemur -27.1884 3.7699 21.4835
rtibia 27.4897
rfoot -3.99682 -5.15461
rtoes 2.88879
lfemur 13.3695 -5.17802 -24.0521
ltibia 31.4009
lfoot -2.60487 -10.0739
ltoes -20.3177
24
root 0.688276 17.8233 -19.5053 -1.97408 1.49193 0.802531
lowerback 10.1165 -1.78674 -2.55011
upperback 0.233681 -2.54275 2.38161
thorax -5.21111 -1.16301 4.29868
lowerneck -17.9597 -2.44104 -2.05267
upperneck 21.2967 -2.52192 -1.22463
head 9.73262 -1.48439 -0.427969
rclavicle 9.0447e-015 -2.14687e-014
rhumerus -40.2491 -30.4295 -67.5997
rradius 18.4534
rwrist 13.2958
rhand -19.0347 18.2223
rfingers 7.12502
rthumb 7.27168 -11.6328
lclavicle 9.0447e-015 -2.14687e-014
lhumerus -23.5902 -0.339744 82.2415
lradius 30.1231
lwrist 6.87366
lhand -31.9738 26.7901
lfingers 7.12502
lthumb -5.22347 56.7057
rfemur -27.0864 3.56006 21.7051
rtibia 28.2465
rfoot -4.25595 -4.91307
rtoes 3.49611
lfemur 12.3653 -4.72023 -23.7955
ltibia 33.4111
lfoot 0.843201 -11.4394
ltoes -16.117
25
root 0.659812 17.8219 -19.3019 -2.1119 1.45544 0.740921
lowerback 10.1249 -2.17069 -3.0252
upperback -0.245406 -3.08612 2.81691
thorax -5.62307 -1.39467 5.12206
lowerneck -15.8404 -2.04614 -2.77672
upperneck 20.776 -1.83978 -1.27806
head 9.16643 -1.22736 -0.205965
rclavicle 2.46493e-014 -6.36111e-015
rhumerus -40.7438 -28.4398 -67.3916
rradius 18.4282
rwrist 12.9371
rhand -18.493 18.9701
rfingers 7.12502
rthumb 7.79454 -10.8662
lclavicle 2.46493e-014 -6.36111e-015
lhumerus -25.4768 1.78059 82.0817
lradius 30.314
lwrist 7.23854
lhand -31.1767 26.4138
lfingers 7.12502
lthumb -4.45378 56.347
rfemur -26.6654 3.24404 22.0444
rtibia 28.9828
rfoot -4.55993 -4.72585
rtoes 5.5578
lfemur 11.5653 -4.42038 -23.4437
ltibia 35.5008
lfoot 2.3015 -12.4031
ltoes -19.0213
26
root 0.631221 17.8939 -19.0958 -2.36941 1.55913 0.465986
lowerback 10.4499 -2.7852 -3.50671
upperback -0.808276 -3.92775 3.54722
thorax -6.2303 -1.75329 6.3415
lowerneck -13.5468 -1.43171 -3.90239
upperneck 20.17 -0.810315 -1.36404
head 8.54131 -0.829304 0.098489
rclavicle -9.7156e-014 3.97569e-015
rhumerus -40.9985 -25.9802 -67.0472
rradius 18.1823
rwrist 13.0986
rhand -18.2922 19.6555
rfingers 7.12502
rthumb 7.98829 -10.1735
lclavicle -9.7156e-014 3.97569e-015
lhumerus -27.7519 4.53319 81.9399
lradius 30.531
lwrist 7.23476
lhand -30.655 24.929
lfingers 7.12502
lthumb -3.95 54.8721
rfemur -25.7782 2.91932 22.5917
rtibia 29.439
rfoot -4.98974 -4.44332
rtoes 5.59858
lfemur 10.208 -4.29649 -22.8787
ltibia 37.8813
lfoot 5.34648 -13.2911
ltoes -13.1852
